<?xml version="1.0" encoding="iso-8859-1"?>
<!-- Generator: Adobe Illustrator 19.0.0, SVG Export Plug-In . SVG Version: 6.00 Build 0)  -->
<svg version="1.1" id="Capa_1" xmlns="http://www.w3.org/2000/svg" xmlns:xlink="http://www.w3.org/1999/xlink" x="0px" y="0px"
	 viewBox="0 0 511.997 511.997" style="enable-background:new 0 0 511.997 511.997;" xml:space="preserve">
<g>
	<g>
		<path d="M403.954,321.853l-1.122-1.008c-11.436-10.262-31.437-10.216-42.798,0.095l-0.884,0.802
			c-11.416,10.358-26.517,15.549-41.623,15.549c-14.825,0.001-29.656-4.998-41.022-15.019l-0.492-0.435
			c-11.549-10.183-30.99-10.14-42.463,0.086c-22.949,20.453-60.124,20.304-82.869-0.334l-0.537-0.487
			c-11.43-10.372-31.476-10.373-42.906-0.007l-0.387,0.352c-11.767,10.678-27.352,15.863-42.835,15.578v78.93h383.969v-78.796
			C432.126,337.794,416.036,332.695,403.954,321.853z"/>
	</g>
</g>
<g>
	<g>
		<path d="M403.139,165.485h-41.195v-45.373c16.172-6.09,27.71-21.714,27.71-39.989c0-5.877-1.655-16.473-15.964-40.531
			c-7.159-12.038-14.229-21.993-14.527-22.411L346.938,0l-12.227,17.181c-0.298,0.418-7.366,10.374-14.527,22.411
			c-14.31,24.058-15.964,34.654-15.964,40.531c0,18.274,11.538,33.899,27.71,39.988v45.373h-60.925v-45.373
			c16.172-6.09,27.71-21.714,27.71-39.988c0-5.877-1.655-16.473-15.964-40.531c-7.159-12.038-14.229-21.993-14.527-22.411L255.999,0
			l-12.227,17.181c-0.298,0.418-7.366,10.374-14.527,22.411c-14.31,24.058-15.964,34.654-15.964,40.531
			c0,18.274,11.538,33.899,27.71,39.988v45.373h-60.924v-45.373c16.171-6.09,27.71-21.714,27.71-39.988
			c0-5.877-1.655-16.473-15.964-40.531c-7.159-12.038-14.229-21.993-14.527-22.411L165.06,0l-12.227,17.181
			c-0.298,0.418-7.366,10.374-14.527,22.411c-14.31,24.058-15.964,34.654-15.964,40.531c0,18.274,11.538,33.899,27.71,39.988v45.373
			h-41.195c-33.351,0-60.485,27.134-60.485,60.485v76.62c11.652,6.831,28.306,5.706,38.302-3.364l0.389-0.353
			c22.957-20.827,60.297-20.824,83.242-0.003l0.538,0.487c11.331,10.282,31.301,10.354,42.736,0.16
			c22.623-20.164,59.534-20.253,82.276-0.198l0.491,0.434c11.451,10.096,31.373,9.979,42.639-0.243l0.883-0.801
			c22.821-20.706,60.059-20.798,83.009-0.202l1.122,1.007c10.409,9.339,27.998,10.127,39.624,2.37V225.97
			C463.624,192.618,436.49,165.485,403.139,165.485z"/>
	</g>
</g>
<g>
	<g>
		<rect x="18.389" y="445.966" width="475.22" height="66.031"/>
	</g>
</g>
<g>
</g>
<g>
</g>
<g>
</g>
<g>
</g>
<g>
</g>
<g>
</g>
<g>
</g>
<g>
</g>
<g>
</g>
<g>
</g>
<g>
</g>
<g>
</g>
<g>
</g>
<g>
</g>
<g>
</g>
</svg>
