<svg viewBox="0 0 512 512" xmlns="http://www.w3.org/2000/svg"><path d="m79.265625 94.265625c8.25 0 15-6.71875 15-15 0-8.277344-6.75-15-15-15s-15 6.722656-15 15c0 8.28125 6.75 15 15 15zm0 0"/><path d="m143.53125 94.265625c8.25 0 15-6.71875 15-15 0-8.277344-6.75-15-15-15s-15 6.722656-15 15c0 8.28125 6.753906 15 15 15zm0 0"/><path d="m207.800781 94.265625c8.25 0 15-6.71875 15-15 0-8.277344-6.75-15-15-15s-15 6.722656-15 15c0 8.28125 6.75 15 15 15zm0 0"/><path d="m432.734375 0h-353.46875c-43.707031 0-79.265625 35.558594-79.265625 79.265625v353.46875c0 43.707031 35.558594 79.265625 79.265625 79.265625h353.46875c43.707031 0 79.265625-35.558594 79.265625-79.265625v-353.46875c0-43.707031-35.558594-79.265625-79.265625-79.265625zm-353.46875 30h353.46875c27.164063 0 49.265625 22.101562 49.265625 49.265625v49.269531h-452v-49.269531c0-27.164063 22.101562-49.265625 49.265625-49.265625zm353.46875 452h-353.46875c-27.164063 0-49.265625-22.101562-49.265625-49.265625v-274.203125h452v274.203125c0 27.164063-22.101562 49.265625-49.265625 49.265625zm0 0"/><path d="m154.140625 213.261719c-5.859375-5.859375-15.355469-5.859375-21.214844 0l-64.265625 64.265625c-5.855468 5.855468-5.855468 15.355468 0 21.210937l64.265625 64.269531c2.929688 2.929688 6.769531 4.394532 10.605469 4.394532 3.839844 0 7.679688-1.464844 10.609375-4.394532 5.855469-5.859374 5.855469-15.355468 0-21.214843l-53.660156-53.660157 53.660156-53.660156c5.855469-5.859375 5.855469-15.355468 0-21.210937zm0 0"/><path d="m346.9375 213.261719c-5.855469-5.859375-15.351562-5.859375-21.210938 0-5.859374 5.855469-5.859374 15.351562 0 21.210937l53.660157 53.660156-53.660157 53.660157c-5.859374 5.859375-5.859374 15.355469 0 21.214843 2.929688 2.929688 6.765626 4.394532 10.605469 4.394532 3.839844 0 7.679688-1.464844 10.605469-4.394532l64.265625-64.269531c5.859375-5.855469 5.859375-15.351562 0-21.210937zm0 0"/><path d="m278.773438 210.449219c-7.40625-3.703125-16.417969-.699219-20.125 6.707031l-64.265626 128.535156c-3.703124 7.410156-.699218 16.421875 6.707032 20.125 2.152344 1.078125 4.441406 1.585938 6.695312 1.585938 5.503906 0 10.800782-3.039063 13.429688-8.292969l64.265625-128.535156c3.707031-7.410157.703125-16.421875-6.707031-20.125zm0 0"/></svg>
